<?xml version="1.0" encoding="iso-8859-1"?>
<!-- Generator: Adobe Illustrator 16.0.0, SVG Export Plug-In . SVG Version: 6.00 Build 0)  -->
<!DOCTYPE svg PUBLIC "-//W3C//DTD SVG 1.1//EN" "http://www.w3.org/Graphics/SVG/1.1/DTD/svg11.dtd">
<svg version="1.1" id="Capa_1" xmlns="http://www.w3.org/2000/svg" xmlns:xlink="http://www.w3.org/1999/xlink" x="0px" y="0px"
	 width="591.823px" height="591.823px" viewBox="0 0 591.823 591.823" style="enable-background:new 0 0 591.823 591.823;"
	 xml:space="preserve">
<g>
	<g>
		<path d="M360.151,197.891c9.558-9.558,9.558-25.106,0-34.664c-4.634-4.633-10.787-7.181-17.332-7.181
			c-6.546,0-12.704,2.548-17.327,7.172l-168.54,167.864c-4.628,4.639-7.181,10.792-7.181,17.337v99.995
			c0,13.517,10.997,24.519,24.513,24.519h99.207c6.545,0,12.699-2.549,17.327-7.172l251.029-249.983
			c24.901-24.987,24.896-65.57,0.02-90.447L436.933,18.714C424.879,6.651,408.814,0,391.693,0c-17.122,0-33.196,6.651-45.245,18.714
			L39.472,325.708c-3.92,3.897-6.421,9.099-7.047,14.65l-0.029,0.253L31.42,564.853c-0.727,7.363,1.841,14.563,7.057,19.779
			c4.614,4.639,10.772,7.191,17.342,7.191c0.798,0,1.616-0.038,2.434-0.115l224.021-0.966l0.512-0.028
			c5.508-0.621,10.706-3.117,14.625-7.043l233.264-233.248c9.558-9.558,9.558-25.111,0-34.669
			c-4.634-4.633-10.787-7.182-17.332-7.182c-6.551,0-12.704,2.549-17.332,7.182L269.068,542.682l-186.187-2.448L80.452,354.07
			L381.117,53.383c2.815-2.816,6.564-4.365,10.557-4.365c3.997,0,7.765,1.554,10.562,4.336L507.179,159.98
			c2.811,2.797,4.365,6.536,4.37,10.524c0.004,4.011-1.55,7.779-4.375,10.6L263.34,423.901h-64.542v-65.327L360.151,197.891z"/>
	</g>
</g>
<g>
</g>
<g>
</g>
<g>
</g>
<g>
</g>
<g>
</g>
<g>
</g>
<g>
</g>
<g>
</g>
<g>
</g>
<g>
</g>
<g>
</g>
<g>
</g>
<g>
</g>
<g>
</g>
<g>
</g>
</svg>
